<svg width="58" height="40" viewBox="0 0 58 40" fill="none" xmlns="http://www.w3.org/2000/svg">
<path d="M14.0288 30.8306C12.1286 30.8306 10.3323 30.491 8.63996 29.8117L6.68038 32.5581C8.61027 33.0306 10.8074 33.5327 13.2717 34.0642C15.7657 34.6253 18.2152 35.1569 20.6201 35.6589C21.7781 35.8952 22.6391 35.9985 23.2032 35.969C23.797 35.969 24.3314 35.8213 24.8065 35.526L26.009 34.773L26.3653 35.2602L24.0939 37.6966C23.4407 38.3758 22.8024 38.9221 22.1789 39.3356C21.5554 39.7785 20.8576 40 20.0857 40C19.4622 40 18.5715 39.8966 17.4135 39.6899C16.2556 39.5127 14.9641 39.2765 13.5389 38.9812C12.1138 38.7154 10.6886 38.4201 9.26347 38.0952C7.83832 37.7999 6.54678 37.5341 5.38884 37.2979C4.91379 37.1798 4.48328 37.1502 4.0973 37.2093C3.71132 37.2979 3.34019 37.5341 2.98391 37.9181L2.44947 38.4496L1.91504 38.0509L7.52657 29.2802C5.35915 28.1875 3.56287 26.4895 2.13772 24.186C0.712574 21.8531 0 18.9295 0 15.4153C0 12.8756 0.385978 10.646 1.15793 8.72647C1.92989 6.80694 2.98391 5.21226 4.31998 3.94241C5.65606 2.64304 7.15543 1.66851 8.81811 1.01883C10.5105 0.339609 12.2474 0 14.0288 0C15.8399 0 17.5768 0.324842 19.2395 0.974529C20.9319 1.59468 22.4312 2.55445 23.7376 3.85382C25.0737 5.12366 26.1277 6.73311 26.8997 8.68217C27.6716 10.6017 28.0576 12.8461 28.0576 15.4153C28.0576 17.9254 27.6716 20.155 26.8997 22.1041C26.1277 24.0236 25.0737 25.6331 23.7376 26.9324C22.4312 28.2023 20.9319 29.1768 19.2395 29.856C17.5768 30.5057 15.8399 30.8306 14.0288 30.8306ZM14.0288 29.9003C15.6618 29.9003 16.983 29.4721 17.9925 28.6157C19.002 27.7298 19.7294 26.2385 20.1748 24.1418C20.6498 22.0155 20.8873 19.1067 20.8873 15.4153C20.8873 11.6944 20.6498 8.78553 20.1748 6.68882C19.7294 4.56257 19.002 3.07124 17.9925 2.21484C16.983 1.3289 15.6618 0.885935 14.0288 0.885935C12.4255 0.885935 11.1191 1.3289 10.1096 2.21484C9.10017 3.07124 8.3579 4.56257 7.88285 6.68882C7.4375 8.78553 7.21482 11.6944 7.21482 15.4153C7.21482 19.1067 7.4375 22.0155 7.88285 24.1418C8.3579 26.2385 9.10017 27.7298 10.1096 28.6157C11.1191 29.4721 12.4255 29.9003 14.0288 29.9003Z" fill="#F5F7F8"/>
<path d="M29.1853 30.0332V29.5903L30.076 29.2359C30.6698 29.0292 31.0558 28.7486 31.2339 28.3942C31.4418 28.0399 31.5457 27.5821 31.5457 27.021V3.85382C31.5457 3.2632 31.4418 2.7907 31.2339 2.43632C31.0558 2.08195 30.6698 1.8014 30.076 1.59468L29.1853 1.24031V0.797342H40.4974V1.24031L39.7403 1.55039C39.1762 1.75711 38.7902 2.03765 38.5824 2.39203C38.3745 2.71687 38.2706 3.1746 38.2706 3.76523V14.5293H48.9147V3.76523C48.9147 3.1746 48.8108 2.71687 48.6029 2.39203C48.4248 2.03765 48.0388 1.75711 47.445 1.55039L46.6433 1.24031V0.797342H58V1.24031L57.1093 1.59468C56.5452 1.8014 56.1592 2.08195 55.9514 2.43632C55.7435 2.7907 55.6396 3.2632 55.6396 3.85382V27.021C55.6396 27.5821 55.7435 28.0399 55.9514 28.3942C56.1592 28.7486 56.5452 29.0292 57.1093 29.2359L58 29.5903V30.0332H46.6433V29.5903L47.445 29.3245C48.0388 29.0882 48.4248 28.8077 48.6029 28.4828C48.8108 28.1285 48.9147 27.656 48.9147 27.0653V15.4153H38.2706V27.0653C38.2706 28.158 38.7605 28.911 39.7403 29.3245L40.4974 29.5903V30.0332H29.1853Z" fill="#F5F7F8"/>
</svg>
