<svg width="160" height="160" viewBox="0 0 160 160" fill="none" xmlns="http://www.w3.org/2000/svg">
<circle cx="80" cy="80" r="80" fill="#F5F7F8"/>
<path fill-rule="evenodd" clip-rule="evenodd" d="M87.7982 159.625L37.3994 109.226L47.0589 94.613L52.7555 96.8421H58.452L64.644 94.613L75.2941 72.322H89.6595H114.675L117.647 49.7833H127.059L159.956 82.6804C158.628 123.012 127.447 155.789 87.7982 159.625Z" fill="#DDE9EF"/>
<path d="M56.1534 97.6961C53.11 97.6961 50.2329 97.1492 47.5224 96.0555L44.3838 100.478C47.4748 101.239 50.9938 102.047 54.9408 102.903C58.9354 103.807 62.8586 104.663 66.7105 105.471C68.5651 105.852 69.9441 106.018 70.8477 105.971C71.7988 105.971 72.6547 105.733 73.4156 105.257L75.3416 104.045L75.9122 104.829L72.2743 108.752C71.2281 109.846 70.2057 110.726 69.2071 111.392C68.2084 112.105 67.0909 112.462 65.8545 112.462C64.8559 112.462 63.4292 112.295 61.5746 111.962C59.72 111.677 57.6514 111.297 55.3688 110.821C53.0862 110.393 50.8036 109.918 48.521 109.394C46.2384 108.919 44.1698 108.491 42.3152 108.11C41.5543 107.92 40.8648 107.873 40.2466 107.968C39.6284 108.11 39.0339 108.491 38.4633 109.109L37.6073 109.965L36.7513 109.323L45.7391 95.1995C42.2676 93.44 39.3906 90.7056 37.108 86.9964C34.8254 83.2396 33.6841 78.5318 33.6841 72.8728C33.6841 68.7832 34.3023 65.1928 35.5387 62.1018C36.7751 59.0108 38.4633 56.4428 40.6032 54.398C42.7432 52.3056 45.1446 50.7363 47.8077 49.6901C50.5183 48.5964 53.3002 48.0495 56.1534 48.0495C59.0542 48.0495 61.8362 48.5726 64.4992 49.6188C67.2098 50.6175 69.6113 52.163 71.7037 54.2554C73.8436 56.3002 75.5318 58.8919 76.7682 62.0305C78.0046 65.1215 78.6228 68.7356 78.6228 72.8728C78.6228 76.9149 78.0046 80.5053 76.7682 83.6438C75.5318 86.7349 73.8436 89.3266 71.7037 91.4189C69.6113 93.4638 67.2098 95.0331 64.4992 96.1268C61.8362 97.173 59.0542 97.6961 56.1534 97.6961ZM56.1534 96.1981C58.7689 96.1981 60.8851 95.5086 62.5019 94.1295C64.1188 92.7029 65.2838 90.3014 65.9972 86.9251C66.758 83.5012 67.1385 78.8171 67.1385 72.8728C67.1385 66.881 66.758 62.1969 65.9972 58.8206C65.2838 55.3967 64.1188 52.9952 62.5019 51.6161C60.8851 50.1895 58.7689 49.4762 56.1534 49.4762C53.5855 49.4762 51.4931 50.1895 49.8763 51.6161C48.2594 52.9952 47.0706 55.3967 46.3097 58.8206C45.5964 62.1969 45.2397 66.881 45.2397 72.8728C45.2397 78.8171 45.5964 83.5012 46.3097 86.9251C47.0706 90.3014 48.2594 92.7029 49.8763 94.1295C51.4931 95.5086 53.5855 96.1981 56.1534 96.1981Z" fill="#526B95"/>
<path d="M80.4289 96.4121V95.6988L81.8555 95.1282C82.8066 94.7953 83.4248 94.3435 83.7102 93.7729C84.043 93.2022 84.2095 92.4651 84.2095 91.5616V54.2554C84.2095 53.3043 84.043 52.5434 83.7102 51.9727C83.4248 51.4021 82.8066 50.9503 81.8555 50.6175L80.4289 50.0468V49.3335H98.5471V50.0468L97.3344 50.5461C96.4309 50.879 95.8127 51.3308 95.4798 51.9014C95.1469 52.4245 94.9805 53.1616 94.9805 54.1127V71.4462H112.029V54.1127C112.029 53.1616 111.862 52.4245 111.529 51.9014C111.244 51.3308 110.626 50.879 109.675 50.5461L108.391 50.0468V49.3335H126.58V50.0468L125.154 50.6175C124.25 50.9503 123.632 51.4021 123.299 51.9727C122.966 52.5434 122.8 53.3043 122.8 54.2554V91.5616C122.8 92.4651 122.966 93.2022 123.299 93.7729C123.632 94.3435 124.25 94.7953 125.154 95.1282L126.58 95.6988V96.4121H108.391V95.6988L109.675 95.2708C110.626 94.8904 111.244 94.4386 111.529 93.9155C111.862 93.3449 112.029 92.584 112.029 91.6329V72.8728H94.9805V91.6329C94.9805 93.3924 95.7651 94.6051 97.3344 95.2708L98.5471 95.6988V96.4121H80.4289Z" fill="#526B95"/>
</svg>
